{"title":"Jurassic.World.2015.BRRip.720p.x264.AAC-PRiSTiNE [P2PDL]","uid":12498736,"size":850622061,"categoryP":"video","categoryS":"hd___movies","magnet":"?xt=urn:btih:7052822d5dc7c445ab5d4a0e66d78c139bce3725&amp;dn=Jurassic.World.2015.BRRip.720p.x264.AAC-PRiSTiNE+%5BP2PDL%5D&amp;tr=udp%3A%2F%2Ftracker.leechers-paradise.org%3A6969&amp;tr=udp%3A%2F%2Fzer0day.ch%3A1337&amp;tr=udp%3A%2F%2Fopen.demonii.com%3A1337&amp;tr=udp%3A%2F%2Ftracker.coppersurfer.tk%3A6969&amp;tr=udp%3A%2F%2Fexodus.desync.com%3A6969","seeders":3,"leechers":0,"uploader":"VYTOP2PDL","files":7,"time":1443329404,"description":"\n                                                                                                  \r\n                                                                                                   \r\nPPPPPPPPPPPPPPPPP   222222222222222   PPPPPPPPPPPPPPPPP  DDDDDDDDDDDDD     LLLLLLLLLLL             \r\nP::::::::::::::::P 2::::::MAKE!::::22 P:::::::SAVE!::::P D::::SHARE!::DDD  L:::::::::L             \r\nP::::::PPPPPP:::::P2::::::222222:::::2P::::::PPPPPP:::::PD:::::::::::::::DDL:::::::::L             \r\nPP:::::P     P:::::2222222     2:::::2PP:::::P     P:::::DDD:::::DDDDD:::::LL:::::::LL             \r\n  P::::P     P:::::P           2:::::2  P::::P     P:::::P D:::::D    D:::::DL:::::L               \r\n  P::::P     P:::::P           2:::::2  P::::P     P:::::P D:::::D     D:::::L:::::L               \r\n  P::::PPPPPP:::::P         2222::::2   P::::PPPPPP:::::P  D:::::D     D:::::L:::::L               \r\n  P:::::::::::::PP     22222::::::22    P:::::::::::::PP   D:::::D     D:::::L:::::L               \r\n  P::::PPPPPPPPP     22::::::::222      P::::PPPPPPPPP     D:::::D     D:::::L:::::L               \r\n  P::::P            2:::::22222         P::::P             D:::::D     D:::::L:::::L               \r\n  P::::P           2:::::2              P::::P             D:::::D     D:::::L:::::L               \r\n  P::::P           2:::::2              P::::P             D:::::D    D:::::DL:::::L         LLLLLL\r\nPP::::::PP         2:::::2       22222PP::::::PP         DDD:::::DDDDD:::::LL:::::::LLLLLLLLL:::::L\r\nP::::::::P         2::::::2222222:::::P::::::::P         D:::::::::::::::DDL::::::::::::::::::::::L\r\nP::::::::P         2:::::Vitamin_X::::P::VYTO::P         D::::ViZNU:::DDD  L::::::::::::::::::::::L\r\nPPPPPPPPP PRiSTiNE 2222222222222222222PPPPPPPPP PRiSTiNE DDDDDDDDDDDDD     LLLLLLLLLLLLLLLLLLLLLLLL\r\n                                                                                                   \r\n                                                                                                   \r\n                                                                                                    \r\n\r\nJurassic.World.2015.BRRip.720p.x264.AAC-PRiSTiNE\r\n\r\n\r\nGenre: Action, Adventure, Sci-Fi  \nhttp://www.imdb.com/title/tt0369610/\r\n\r\n\r\nGeneral\r\nFormat                         : MPEG-4\r\nFile size                      : 800 MiB\r\nDuration                       : 2h 4mn\r\nOverall bit rate               : 900 Kbps\r\n\r\nVideo\r\nFormat                         : AVC\r\nBit rate                       : 818 Kbps\r\nWidth                          : 1 280 pixels\r\nHeight                         : 640 pixels\r\nDisplay aspect ratio           : 2.000\r\nFrame rate mode                : Constant\r\nFrame rate                     : 23.976 fps\r\nBit depth                      : 8 bits\r\nStream size                    : 727 MiB (91%)\r\nWriting library                : x264 core 148 r2597\r\n\r\nAudio\r\nFormat                         : AAC\r\nBit rate mode                  : Variable\r\nBit rate                       : 79.8 Kbps\r\nChannel(s)                     : 2 channels\r\nChannel positions              : Front: L R\r\nSampling rate                  : 48.0 KHz\r\nStream size                    : 71.0 MiB (9%)\r\nLanguage                       : English\r\n\r\nSubtitle                       : Yes (English)\r\nSource                     \t   : 720p.BluRay.x264-SPARKS\r\n\r\nScreenshots:\r\n \nhttp://ititli.com/dS \nhttp://ititli.com/dZ \nhttp://ititli.com/dc \nhttp://ititli.com/di \nhttp://ititli.com/dp \nhttp://ititli.com/dD \nhttp://ititli.com/da \nhttp://ititli.com/db \nhttp://ititli.com/dz \nhttp://ititli.com/dI \nhttp://ititli.com/dO \nhttp://ititli.com/09 \nhttp://ititli.com/0X \nhttp://ititli.com/0q \nhttp://ititli.com/0r\r\n\r\n----------------------------------------------------------------------------------------------------\r\n\r\n\r\nEncoder Notes: Looking For Early Access To Anything You Can Provide DVDScr, R5, DVDR, BluRay, Direct\r\nAudio, Music Releases and Seedboxes. If You Got anything to offer please contact us.\r\n\r\nSupport us by donating BC - 1FgwdzPsd1y25Gea8wP1qni35uGCtmkRCD","torrent":{"xt":"urn:btih:7052822d5dc7c445ab5d4a0e66d78c139bce3725","amp;dn":"Jurassic.World.2015.BRRip.720p.x264.AAC-PRiSTiNE+%5BP2PDL%5D","amp;tr":["udp%3A%2F%2Ftracker.leechers-paradise.org%3A6969","udp%3A%2F%2Fzer0day.ch%3A1337","udp%3A%2F%2Fopen.demonii.com%3A1337","udp%3A%2F%2Ftracker.coppersurfer.tk%3A6969","udp%3A%2F%2Fexodus.desync.com%3A6969"],"infoHash":"7052822d5dc7c445ab5d4a0e66d78c139bce3725","infoHashBuffer":{"type":"Buffer","data":[112,82,130,45,93,199,196,69,171,93,74,14,102,215,140,19,155,206,55,37]},"announce":[],"urlList":[]}}